#!OML:ASF H:\Terrain\Walking\May29\JustinRory\Justin.ASF
:FULLY-SPECIFIED
:DEGREES
1
root 13.3738 16.0188 19.0736 56.546 -56.3015 -44.0316
lowerback 16.6486 0.0619579 16.2023
upperback 1.10315 3.35964 7.8026
thorax -7.74263 1.01301 -1.27037
lowerneck 6.61713 -21.6866 -12.6382
upperneck 5.05641 -33.9167 31.1491
head 8.45808 -16.8624 8.28085
rclavicle -2.47984e-014 2.87244e-014
rhumerus -5.13265 -48.2261 -87.2077
rradius 24.3469
rwrist -33.5926
rhand -43.3586 33.7662
rfingers 7.12502
rthumb -16.2036 4.42337
lclavicle -2.47984e-014 2.87244e-014
lhumerus 24.1141 -54.5487 66.8953
lradius 87.3003
lwrist -45.0663
lhand -12.9234 44.6603
lfingers 7.12502
lthumb 13.167 74.2245
rfemur 2.92738 -13.6253 40.1217
rtibia 26.9329
rfoot -25.7339 -15.311
rtoes -18.8701
lfemur -59.5466 4.48072 -9.72324
ltibia 83.3575
lfoot -11.934 -14.655
ltoes 13.4465
2
root 13.4032 16.0346 18.9425 51.8235 -54.9683 -38.4503
lowerback 15.984 -1.09653 16.7473
upperback 0.872357 1.82327 7.04343
thorax -7.79836 0.265607 -2.05346
lowerneck 6.36413 -21.395 -12.7503
upperneck 5.85652 -33.799 31.2155
head 8.78277 -16.7359 8.31294
rclavicle -1.01186e-014 -5.54873e-014
rhumerus -6.28249 -47.887 -87.3874
rradius 23.6486
rwrist -32.3993
rhand -43.3784 31.9869
rfingers 7.12502
rthumb -16.2227 2.64568
lclavicle -1.01186e-014 -5.54873e-014
lhumerus 26.519 -55.9806 65.8848
lradius 85.7686
lwrist -44.8714
lhand -12.4018 45.395
lfingers 7.12502
lthumb 13.6698 74.9261
rfemur 1.59059 -15.6501 39.8294
rtibia 27.8224
rfoot -26.9317 -14.4087
rtoes -17.3359
lfemur -58.9316 2.42781 -10.6953
ltibia 81.8761
lfoot -15.2745 -13.9243
ltoes 6.77559
3
root 13.4287 16.068 18.8151 47.6559 -53.6774 -33.3213
lowerback 15.3417 -2.16559 16.9018
upperback 0.597811 0.345692 6.33861
thorax -7.97606 -0.451775 -2.58372
lowerneck 6.22514 -21.0436 -12.8873
upperneck 6.63822 -33.567 31.1777
head 9.03604 -16.5703 8.366
rclavicle -1.28713e-014 1.82882e-014
rhumerus 1.75875 -78.7877 -95.9801
rradius 20.7779
rwrist -0.364915
rhand -38.8558 30.5354
rfingers 7.12502
rthumb -11.8646 0.891575
lclavicle -1.28713e-014 1.82882e-014
lhumerus 28.1392 -57.0872 65.6837
lradius 84.1541
lwrist -44.5801
lhand -11.8736 45.0311
lfingers 7.12502
lthumb 14.1788 74.5272
rfemur 0.282366 -17.8884 39.2968
rtibia 28.4563
rfoot -27.4086 -13.8851
rtoes -18.1198
lfemur -58.4775 0.684874 -11.962
ltibia 80.2615
lfoot -17.8606 -13.1978
ltoes 2.93859
4
root 13.4523 16.1024 18.68 44.2788 -52.1282 -29.1154
lowerback 14.6082 -3.10882 17.0563
upperback 0.524139 -1.02307 5.81661
thorax -7.89255 -1.0982 -2.94868
lowerneck 5.91059 -20.8263 -12.8993
upperneck 7.34814 -33.4459 31.0316
head 9.27543 -16.44 8.32
rclavicle -6.26172e-015 1.45113e-014
rhumerus -8.34349 -46.1998 -87.9303
rradius 22.5975
rwrist -30.7796
rhand -42.5899 29.1768
rfingers 7.12502
rthumb -15.4634 -0.224761
lclavicle -6.26172e-015 1.45113e-014
lhumerus 30.0992 -58.2516 65.1202
lradius 82.6428
lwrist -44.0163
lhand -11.7665 45.1622
lfingers 7.12502
lthumb 14.282 74.6511
rfemur -0.980101 -20.0242 39.1046
rtibia 29.0958
rfoot -27.5043 -13.6518
rtoes -19.57
lfemur -58.22 -0.454043 -13.2122
ltibia 78.5217
lfoot -19.4211 -13.0359
ltoes 6.87055
5
root 13.4747 16.133 18.5318 41.4292 -50.5898 -25.6182
lowerback 13.9862 -3.88444 17.0382
upperback 0.576398 -2.19508 5.35869
thorax -7.71211 -1.63702 -3.20418
lowerneck 5.47268 -20.6836 -12.6664
upperneck 7.96319 -33.3742 30.8759
head 9.47089 -16.3217 8.21801
rclavicle 6.95746e-014 -5.1684e-015
rhumerus -9.04154 -44.6405 -88.445
rradius 22.1928
rwrist -29.8169
rhand -41.711 27.3823
rfingers 7.12502
rthumb -14.6168 -2.08257
lclavicle 6.95746e-014 -5.1684e-015
lhumerus 32.7856 -59.6535 63.7173
lradius 81.2672
lwrist -43.2741
lhand -11.9931 45.8788
lfingers 7.12502
lthumb 14.0636 75.3829
rfemur -1.97187 -21.5 39.0816
rtibia 29.5341
rfoot -27.531 -13.4607
rtoes -20.2552
lfemur -58.0415 -1.09796 -14.5331
ltibia 76.8622
lfoot -19.8086 -13.1654
ltoes 10.6518
6
root 13.4977 16.1525 18.3689 39.3199 -49.1268 -23.0775
lowerback 13.7372 -4.53811 16.9874
upperback 0.552082 -3.11264 5.04739
thorax -7.78655 -2.07416 -3.31691
lowerneck 5.3362 -20.3677 -12.5149
upperneck 8.40278 -33.0637 30.9102
head 9.55499 -16.138 8.28982
rclavicle -6.16232e-015 -3.57812e-015
rhumerus -9.69915 -45.0611 -88.8929
rradius 21.3972
rwrist -26.4141
rhand -41.3046 27.1834
rfingers 7.12502
rthumb -14.2251 -2.30949
lclavicle -6.16232e-015 -3.57812e-015
lhumerus 34.8095 -60.7128 63.0091
lradius 79.8307
lwrist -43.1873
lhand -11.6878 44.8114
lfingers 7.12502
lthumb 14.3579 74.2949
rfemur -2.71823 -22.4865 39.2841
rtibia 29.7075
rfoot -27.5742 -12.9295
rtoes -20.402
lfemur -58.0786 -1.32789 -15.5174
ltibia 75.6859
lfoot -19.5701 -13.5675
ltoes 13.6905
7
root 13.513 16.1775 18.2025 37.8179 -47.8764 -21.41
lowerback 13.8151 -5.11499 16.7856
upperback 0.524075 -3.87287 4.97949
thorax -7.9981 -2.43844 -3.09311
lowerneck 5.36372 -19.9741 -12.5744
upperneck 8.78628 -32.5478 30.6918
head 9.51487 -15.8833 8.37272
rclavicle 9.14409e-015 3.57812e-014
rhumerus -10.6439 -42.2765 -89.269
rradius 21.1948
rwrist -25.9803
rhand -41.6391 27.9094
rfingers 7.12502
rthumb -14.5474 -1.56053
lclavicle 9.14409e-015 3.57812e-014
lhumerus 36.7921 -61.7249 62.2715
lradius 78.2586
lwrist -43.1586
lhand -11.9532 45.2405
lfingers 7.12502
lthumb 14.1021 74.742
rfemur -3.19679 -22.8507 39.7437
rtibia 29.7208
rfoot -27.2303 -13.1375
rtoes -23.1383
lfemur -58.2142 -1.24376 -16.1037
ltibia 75.0056
lfoot -19.1815 -14.0577
ltoes 16.8122
